<svg width="72" height="80" viewBox="0 0 72 80" fill="none" xmlns="http://www.w3.org/2000/svg">
<path d="M27.375 20.4688H44.6562V49.3438C44.6562 53.9479 43.6042 57.3333 41.5 59.5C39.1875 61.8333 35.4167 63 30.1875 63H27.375V20.4688ZM3.28125 48.4062H22.1875V63H20.1562C14.1771 63 9.875 62.0417 7.25 60.125C4.60417 58.2292 3.28125 55.0729 3.28125 50.6562V48.4062Z" fill="#FFFFFF"/>
<path d="M50.8438 20.4688H53.6562C61.3229 20.4688 65.8958 23.0625 67.375 28.25C67.875 29.9583 68.125 31.9167 68.125 34.125V63H50.8438V20.4688ZM27.7812 34.125C27.7812 29.5208 28.8333 26.1458 30.9375 24C33.25 21.6458 37.0208 20.4688 42.25 20.4688H45.0625V63H27.7812V34.125Z" fill="#FFFFFF"/>
</svg>
